<svg preserveAspectRatio="none" overflow="visible" style="display: block;" width="21.3594" height="20.7491" viewBox="0 0 21.3594 20.7491" fill="none" xmlns="http://www.w3.org/2000/svg">
<path id="Vector (Stroke)" d="M14.6927 0.115529C15.1096 -0.0191635 15.555 -0.0361035 15.979 0.0648325L16.1597 0.115529L16.4031 0.212314C16.6313 0.32012 16.8181 0.458173 16.9732 0.589083C17.1697 0.754894 17.3847 0.970519 17.6048 1.18938L19.6698 3.24145C19.8909 3.46126 20.1076 3.67596 20.2747 3.8717C20.4508 4.07793 20.6404 4.33994 20.7522 4.68169C20.907 5.15564 20.9069 5.66657 20.7522 6.14038C20.6405 6.48205 20.4507 6.74421 20.2747 6.95037C20.1078 7.1459 19.8905 7.36007 19.6698 7.57947H19.6687L8.79776 18.3894H20.1727C20.8281 18.3894 21.3593 18.9177 21.3594 19.5693C21.3594 20.2209 20.8281 20.7491 20.1727 20.7491H1.18663C0.531273 20.7491 0 20.2209 0 19.5693V14.8499C3.62581e-05 14.537 0.125142 14.2369 0.347646 14.0157L13.2442 1.19284L13.25 1.18592L13.2523 1.18477C13.4707 0.967527 13.6843 0.754776 13.8792 0.590235C14.0863 0.415392 14.3492 0.226533 14.6927 0.115529ZM15.4146 2.38882C15.3091 2.47788 15.1725 2.61232 14.9244 2.85892L14.9221 2.86007L2.37326 15.3384V18.3894H5.44182L18.0023 5.90072C18.2443 5.65999 18.3774 5.52615 18.4658 5.42256C18.469 5.41882 18.4711 5.41445 18.4739 5.41104C18.4711 5.40762 18.469 5.40325 18.4658 5.39951C18.3759 5.29427 18.2395 5.15836 17.9907 4.91098L15.9268 2.85776C15.6793 2.61169 15.5431 2.47771 15.4378 2.38882C15.434 2.38559 15.4297 2.38248 15.4262 2.3796C15.4227 2.38255 15.4185 2.38551 15.4146 2.38882Z" fill="black"/>
</svg>
