<svg preserveAspectRatio="none" overflow="visible" style="display: block;" width="38.8453" height="20.0223" viewBox="0 0 38.8453 20.0223" fill="none" xmlns="http://www.w3.org/2000/svg">
<g id="Isolation_Mode" clip-path="url(#clip0_505_53)">
<path id="Vector" d="M38.8453 20.0223H-1.83105e-06L6.01363 1.09863e-05H32.8317L38.8453 20.0223ZM2.45065 18.1973H36.3947L31.4934 1.82494H7.36932L2.45065 18.1973Z" fill="#020202"/>
<path id="Vector_2" d="M14.0434 14.5648C13.3211 14.5602 12.6297 14.2713 12.1189 13.7605C11.6082 13.2498 11.3192 12.5584 11.3147 11.8361C11.3147 11.1124 11.6022 10.4183 12.1139 9.90658C12.6256 9.39485 13.3197 9.10736 14.0434 9.10736C14.4032 9.10507 14.7599 9.17398 15.093 9.31008C15.4261 9.44619 15.7289 9.64681 15.9842 9.90043C16.2394 10.154 16.4419 10.4556 16.5802 10.7878C16.7184 11.12 16.7895 11.4763 16.7895 11.8361C16.7849 12.5614 16.4936 13.2554 15.9791 13.7666C15.4646 14.2779 14.7687 14.5648 14.0434 14.5648ZM14.0434 10.9149C13.8021 10.9195 13.5723 11.0185 13.4033 11.1908C13.2342 11.3631 13.1396 11.5948 13.1396 11.8361C13.1396 12.0758 13.2348 12.3056 13.4043 12.4751C13.5738 12.6446 13.8037 12.7399 14.0434 12.7399C14.1635 12.7422 14.2829 12.7205 14.3946 12.6761C14.5063 12.6317 14.608 12.5656 14.6937 12.4814C14.7795 12.3972 14.8477 12.2968 14.8942 12.186C14.9407 12.0752 14.9646 11.9563 14.9646 11.8361C14.9646 11.5918 14.8675 11.3575 14.6948 11.1847C14.522 11.012 14.2877 10.9149 14.0434 10.9149Z" fill="#020202"/>
</g>
<defs>
<clipPath id="clip0_505_53">
<rect width="38.8453" height="20.0223" fill="white"/>
</clipPath>
</defs>
</svg>
